<svg width="23" height="12" viewBox="0 0 23 12" fill="none" xmlns="http://www.w3.org/2000/svg">
<path d="M22.4791 0.825192C22.2385 1.49906 21.8865 2.13838 21.4343 2.72281L21.4526 2.6976C21.0232 3.32482 20.5104 4.04948 19.9142 4.87159C19.403 5.52064 19.1324 5.85665 19.1024 5.87961C18.9658 6.02955 18.8774 6.20879 18.8465 6.39875L18.8455 6.40463C18.8699 6.57579 18.9606 6.73442 19.1024 6.85404L19.4858 7.22869C21.5369 9.07619 22.6906 10.3497 22.9468 11.0491C22.9954 11.164 23.011 11.2876 22.9923 11.4091C22.9736 11.5305 22.9211 11.646 22.8395 11.7455L22.8414 11.743C22.7449 11.8302 22.6273 11.8973 22.4972 11.9393C22.3671 11.9814 22.228 11.9972 22.0899 11.9857H22.0938H19.5672C19.2442 11.9857 18.9471 11.8866 18.7142 11.722L18.7171 11.7237C18.3845 11.4847 18.0793 11.218 17.8056 10.9273L17.7969 10.9172C17.3554 10.4799 16.9637 10.1117 16.6219 9.81261C15.4832 8.86394 14.6429 8.38961 14.1011 8.38961C13.9262 8.37587 13.7513 8.41597 13.6065 8.50301L13.6094 8.50133C13.5472 8.5697 13.5015 8.64845 13.4751 8.73279C13.4488 8.81713 13.4423 8.90529 13.456 8.9919V8.98854C13.4188 9.38049 13.4066 9.77396 13.4196 10.1671V10.1528V11.1264C13.4468 11.2427 13.4375 11.3633 13.3926 11.4753C13.3477 11.5873 13.2689 11.6865 13.1646 11.7623L13.1637 11.7631C12.6783 11.9553 12.1439 12.0327 11.6138 11.9874L11.6263 11.9883C10.1753 11.9665 8.75867 11.5982 7.52881 10.9231L7.56236 10.9399C6.14419 10.1906 4.92863 9.18029 3.99971 7.97884L3.97383 7.94355C3.07214 6.88973 2.27953 5.76748 1.60544 4.59018L1.53835 4.46082C1.08917 3.69844 0.694478 2.91235 0.356552 2.10707L0.299044 1.95166C0.142367 1.53362 0.0426328 1.1008 0.00191695 0.662228L0 0.641227C0 0.216735 0.284986 0.00448905 0.854959 0.00448905H3.37575C3.63059 -0.0130042 3.88357 0.0545013 4.08406 0.193494L4.08214 0.191814C4.27384 0.37578 4.41569 0.601746 4.48566 0.853753L4.48853 0.863833C4.90498 1.90909 5.41355 2.92438 6.00963 3.90052L5.94541 3.78544C6.37624 4.5524 6.89762 5.27766 7.50102 5.94934L7.47897 5.9233C7.99016 6.47323 8.38888 6.7482 8.67515 6.7482L8.70582 6.74904C8.77321 6.74913 8.83944 6.73364 8.89783 6.70415C8.95622 6.67465 9.00471 6.63219 9.03841 6.58103L9.03937 6.57935C9.13113 6.36881 9.1675 6.14283 9.14576 5.91826V5.9233V2.66484C9.12784 2.2954 9.02344 1.93313 8.83905 1.60053L8.84671 1.61649C8.73491 1.40512 8.58971 1.20859 8.4154 1.03268L8.41828 1.03604C8.25755 0.895408 8.153 0.713019 8.12019 0.516063L8.11923 0.511023C8.11923 0.368219 8.19399 0.239696 8.31093 0.155693L8.31188 0.154853C8.43222 0.0582662 8.58961 0.00488947 8.75278 0.00532901H12.7343C12.8342 -0.00489361 12.9355 0.00679395 13.029 0.0393429C13.1225 0.0718919 13.2054 0.124284 13.2701 0.191814L13.271 0.192654C13.3921 0.388695 13.4451 0.611491 13.4234 0.833592V0.829392V5.17484C13.4082 5.34623 13.4537 5.51756 13.5538 5.66541L13.5519 5.66205C13.587 5.70802 13.6344 5.74572 13.6901 5.7718C13.7458 5.79787 13.8079 5.81154 13.871 5.81157C14.0327 5.80237 14.1895 5.75538 14.3234 5.67549L14.3206 5.67717C14.5813 5.52009 14.8055 5.34116 15.0001 5.13871L15.0039 5.13451C15.5961 4.54732 16.127 3.91477 16.5902 3.24446L16.6276 3.18566C16.9573 2.70685 17.3139 2.11715 17.6369 1.51149L17.6963 1.38801L18.1238 0.638707C18.1991 0.444968 18.3442 0.277967 18.5374 0.162942C18.7305 0.0479161 18.9612 -0.00888268 19.1944 0.0011288H19.1915H21.7133C22.3944 0.0011288 22.65 0.275817 22.48 0.825192H22.4791Z" fill="white"/>
</svg>
