<svg width="16" height="16" viewBox="0 0 16 16" fill="none" xmlns="http://www.w3.org/2000/svg">
<path d="M7.43489 0.82257C8.88852 0.707967 10.3427 1.03742 11.605 1.76735C12.8673 2.49727 13.8782 3.59325 14.504 4.91028C15.1298 6.22731 15.3409 7.70331 15.1095 9.14297C14.8781 10.5826 14.215 11.9181 13.208 12.9727C12.201 14.0272 10.8976 14.7512 9.47011 15.0488C8.04266 15.3463 6.55849 15.2035 5.214 14.6391C3.86951 14.0747 2.72807 13.1154 1.9407 11.8882C1.15333 10.6609 0.757158 9.22344 0.804594 7.76607C0.809964 7.58705 0.886231 7.41749 1.01662 7.2947C1.147 7.17192 1.32082 7.10595 1.49984 7.11132C1.67886 7.11669 1.84842 7.19296 1.97121 7.32334C2.094 7.45373 2.15996 7.62755 2.15459 7.80657C2.10898 9.18614 2.55266 10.5374 3.40718 11.6214C4.2617 12.7054 5.472 13.4524 6.82408 13.7302C8.17617 14.008 9.58293 13.7987 10.7956 13.1394C12.0083 12.4801 12.9488 11.4132 13.4508 10.1274C13.9528 8.84162 13.984 7.41972 13.5388 6.11316C13.0936 4.80659 12.2008 3.69952 11.0182 2.98771C9.83552 2.2759 8.43928 2.0052 7.07632 2.22347C5.71337 2.44175 4.47149 3.13494 3.57029 4.18047L3.38669 4.40367H5.52779L5.61959 4.41087C5.78115 4.4331 5.9292 4.51307 6.03637 4.63599C6.14354 4.75892 6.20259 4.91649 6.20259 5.07957C6.20259 5.24265 6.14354 5.40022 6.03637 5.52315C5.9292 5.64607 5.78115 5.72604 5.61959 5.74827L5.52779 5.75457H1.92779L1.83599 5.74827C1.69006 5.72823 1.55468 5.661 1.45052 5.55684C1.34636 5.45268 1.27913 5.31731 1.25909 5.17137L1.25279 5.07957V1.47957L1.25909 1.38777C1.27913 1.24183 1.34636 1.10646 1.45052 1.0023C1.55468 0.898137 1.69006 0.830909 1.83599 0.81087L1.92779 0.80457L2.01959 0.81087C2.16553 0.830909 2.3009 0.898137 2.40507 1.0023C2.50923 1.10646 2.57645 1.24183 2.59649 1.38777L2.60279 1.47957L2.60189 3.23727C3.83718 1.83412 5.57107 0.967247 7.43489 0.82257Z" fill="#111111"/>
</svg>
