<svg width="33" height="54" viewBox="0 0 33 54" fill="none" xmlns="http://www.w3.org/2000/svg">
<path d="M4.22532 52.1522C4.09745 50.7455 4.08324 49.3105 4.16849 47.8612C4.45266 42.6467 5.97297 37.418 7.35119 33.6101C8.77204 29.6885 8.78625 25.1987 7.35119 21.2771L1 4.11328" stroke="#009B97" stroke-width="2" stroke-miterlimit="10" stroke-linecap="round" stroke-linejoin="round"/>
<path d="M26.7907 52.1505C26.8049 50.9002 26.947 49.4367 27.1885 47.8596C28.041 42.2046 30.1297 35.0435 31.6358 30.3121C32.7156 26.9305 31.1527 23.3073 30.1723 19.8973L24.7305 1" stroke="#009B97" stroke-width="2" stroke-miterlimit="10" stroke-linecap="round" stroke-linejoin="round"/>
<path d="M4.89062 48.3828C4.89062 48.3828 17.522 50.4999 27.0985 48.4539" stroke="#009B97" stroke-width="2" stroke-miterlimit="10" stroke-linecap="round" stroke-linejoin="round"/>
<path d="M29.7453 18.7617C29.7453 18.7617 15.5937 25.1555 28.7081 40.5575" stroke="#009B97" stroke-width="2" stroke-miterlimit="10" stroke-linecap="round" stroke-linejoin="round"/>
<path d="M27.3844 10.2148L6.24219 15.6425" stroke="#009B97" stroke-width="2" stroke-miterlimit="10" stroke-linecap="round" stroke-linejoin="round"/>
<path d="M27.7413 44.418H5.32031" stroke="#009B97" stroke-width="2" stroke-miterlimit="10" stroke-linecap="round" stroke-linejoin="round"/>
<path d="M3.76953 10.2229C5.44613 9.96717 18.2196 8.12007 25.6222 4.11328" stroke="#009B97" stroke-width="2" stroke-miterlimit="10" stroke-linecap="round" stroke-linejoin="round"/>
</svg>
