<svg width="41" height="47" viewBox="0 0 41 47" fill="none" xmlns="http://www.w3.org/2000/svg">
<path d="M12.1965 22.1491C12.0726 22.1491 11.9486 22.1119 11.8247 22.0499C11.4652 21.8515 11.3412 21.3927 11.5395 21.0331C11.9114 20.3884 12.3577 19.7312 12.8659 19.0988C13.1262 18.7764 13.5848 18.7268 13.9071 18.9872C14.2294 19.2476 14.279 19.7188 14.0187 20.0288C13.56 20.6116 13.151 21.1943 12.8287 21.7771C12.7047 22.0127 12.4568 22.1491 12.1965 22.1491Z" fill="#009B97"/>
<path d="M11.5368 29.8872C11.2393 29.8872 10.9666 29.7136 10.8426 29.4285C10.384 28.3001 10.1484 27.1346 10.1484 25.969C10.1484 25.6962 10.1608 25.411 10.1856 25.1258C10.2228 24.7167 10.5823 24.4191 10.9913 24.4563C11.4004 24.4935 11.6979 24.853 11.6607 25.2622C11.6359 25.4978 11.6235 25.7334 11.6235 25.9566C11.6235 26.9238 11.8219 27.9033 12.2061 28.8457C12.3549 29.2301 12.1813 29.664 11.7971 29.8128C11.7227 29.8748 11.6359 29.8872 11.5368 29.8872Z" fill="#009B97"/>
<path d="M15.4037 34.7111C15.2674 34.7111 15.131 34.6739 15.007 34.5995C14.6228 34.3639 13.9162 33.8059 13.1849 33.0123C12.8998 32.7147 12.9246 32.2436 13.2221 31.9584C13.5196 31.6732 13.9906 31.698 14.2757 31.9956C14.9575 32.7271 15.5772 33.1983 15.8004 33.3347C16.1474 33.5579 16.259 34.0167 16.0359 34.3639C15.8995 34.5871 15.6516 34.7111 15.4037 34.7111Z" fill="#009B97"/>
<path d="M11.2137 1.80295C9.13125 0.488606 6.32983 0.823392 4.56964 2.54692C2.00372 5.05161 -0.215106 9.05664 1.75581 19.7822C4.6812 35.6907 3.50361 46.7511 12.8128 45.5483C20.9939 44.4819 16.8662 31.5617 16.0233 24.432C15.5274 20.2782 16.4447 18.0091 16.4323 15.8268C16.4323 11.3133 15.7506 4.67963 11.2137 1.80295Z" stroke="#009B97" stroke-width="2" stroke-miterlimit="10"/>
<path d="M28.021 22.1491C27.7606 22.1491 27.5127 22.0127 27.3764 21.7771C27.0541 21.1943 26.645 20.6116 26.1864 20.0288C25.9261 19.7064 25.9757 19.2352 26.298 18.9872C26.6202 18.7268 27.0913 18.7764 27.3392 19.0988C27.8474 19.7436 28.2937 20.3884 28.6655 21.0331C28.8639 21.3927 28.7399 21.8391 28.3804 22.0499C28.2689 22.1243 28.1449 22.1491 28.021 22.1491Z" fill="#009B97"/>
<path d="M28.6651 29.8859C28.5659 29.8859 28.4791 29.8735 28.38 29.8363C27.9957 29.6875 27.8222 29.2535 27.9709 28.8691C28.3552 27.9144 28.5535 26.9472 28.5535 25.98C28.5535 25.7444 28.5411 25.5089 28.5163 25.2857C28.4791 24.8765 28.7766 24.5169 29.1857 24.4797C29.5948 24.4425 29.9542 24.7401 29.9914 25.1493C30.0162 25.4221 30.0286 25.7073 30.0286 25.9924C30.0286 27.158 29.7931 28.3111 29.3344 29.4519C29.2477 29.7123 28.9626 29.8859 28.6651 29.8859Z" fill="#009B97"/>
<path d="M24.8102 34.7111C24.5623 34.7111 24.3144 34.5871 24.178 34.3639C23.9549 34.0167 24.0665 33.5579 24.4136 33.3347C24.6367 33.1983 25.2565 32.7271 25.9382 31.9956C26.2233 31.698 26.6944 31.6732 26.9919 31.9584C27.2894 32.2436 27.3141 32.7147 27.029 33.0123C26.2853 33.8059 25.5788 34.3639 25.2069 34.5995C25.0829 34.6739 24.9466 34.7111 24.8102 34.7111Z" fill="#009B97"/>
<path d="M29.0031 1.80295C31.0731 0.488606 33.887 0.823392 35.6472 2.54692C38.2007 5.05161 40.4319 9.06904 38.461 19.7946C35.5356 35.6907 36.7008 46.751 27.404 45.5483C19.2229 44.4819 23.3506 31.5617 24.1935 24.432C24.6894 20.2782 23.7721 18.0091 23.7845 15.8268C23.7845 11.3133 24.4538 4.67963 29.0031 1.80295Z" stroke="#009B97" stroke-width="2" stroke-miterlimit="10"/>
</svg>
