<svg width="42" height="52" viewBox="0 0 42 52" fill="none" xmlns="http://www.w3.org/2000/svg">
<path d="M1 11.7851L18.1661 17.4025C19.2978 17.7707 20.1159 18.7797 20.2386 19.9659C20.5931 23.4836 22.611 30.6691 25.8561 37.4047C26.8514 39.4635 26.9605 41.5087 26.2924 43.5675C26.1151 44.4265 25.297 48.1352 28.883 48.3397C32.837 48.5715 35.3049 50.7258 39.0136 49.9077C41.0724 49.4577 41.1815 48.5306 40.8679 47.7943C40.6088 47.1944 40.0907 46.7581 39.4908 46.5263C37.541 45.7764 32.0735 42.8722 31.3236 36.9956L28.5557 16.489C28.283 14.4438 27.0968 12.644 25.3379 11.5669L8.06278 1" stroke="#009B97" stroke-width="2" stroke-miterlimit="10" stroke-linecap="round" stroke-linejoin="round"/>
<path d="M16.2835 16.7773C14.2792 20.1724 11.7704 25.6399 10.0524 31.421C9.39798 33.6162 8.11632 35.1978 6.23473 36.275C5.52573 36.7795 2.41701 38.9746 4.93943 41.5516C7.70728 44.3876 8.08905 47.6327 11.375 49.5279C13.2021 50.5778 13.9111 49.9642 14.1701 49.2143C14.3883 48.6007 14.2928 47.919 14.0065 47.3463C13.0657 45.492 10.9796 39.6564 14.3746 34.8024L21.2193 24.8764" stroke="#009B97" stroke-width="2" stroke-miterlimit="10" stroke-linecap="round" stroke-linejoin="round"/>
<path d="M17.5391 6.79495V6.78125" stroke="#009B97" stroke-width="2" stroke-miterlimit="10" stroke-linecap="round" stroke-linejoin="round"/>
<path d="M6.31641 13.5182C7.85713 12.4956 11.2113 9.67321 12.4929 3.71484" stroke="#009B97" stroke-width="2" stroke-miterlimit="10" stroke-linecap="round" stroke-linejoin="round"/>
<path d="M10.0664 14.7447C11.7026 13.5176 14.4568 10.777 15.643 5.63672" stroke="#009B97" stroke-width="2" stroke-miterlimit="10" stroke-linecap="round" stroke-linejoin="round"/>
</svg>
