<svg width="40" height="48" viewBox="0 0 40 48" fill="none" xmlns="http://www.w3.org/2000/svg">
<path d="M29.1391 40.2547L23.8466 11.7383C23.3951 9.28345 22.0782 7.17572 20.2597 5.66311C18.6293 4.31168 16.56 3.45619 14.3401 3.29501C14.0893 3.27021 13.8385 3.25781 13.5751 3.25781C7.81859 3.25781 3.14062 7.88243 3.14062 13.5857V46.3176" stroke="#009B97" stroke-width="2" stroke-miterlimit="10" stroke-linecap="round" stroke-linejoin="round"/>
<path d="M9.50781 15.1613V12.0121C9.50781 9.61916 10.3355 7.41224 11.7151 5.66406" stroke="#009B97" stroke-width="2" stroke-miterlimit="10" stroke-linecap="round" stroke-linejoin="round"/>
<path d="M9.50781 29.2939V21.0117" stroke="#009B97" stroke-width="2" stroke-miterlimit="10" stroke-linecap="round" stroke-linejoin="round"/>
<path d="M9.50781 41.545V35.0234" stroke="#009B97" stroke-width="2" stroke-miterlimit="10" stroke-linecap="round" stroke-linejoin="round"/>
<path d="M18.6172 1.77038C19.0561 1.72079 19.5076 1.68359 19.9591 1.68359C22.48 1.68359 24.8252 2.57628 26.6437 4.07649C28.4748 5.5767 29.7791 7.69683 30.2306 10.1517L35.1217 36.4488" stroke="#009B97" stroke-width="2" stroke-miterlimit="10" stroke-linecap="round" stroke-linejoin="round"/>
<path d="M24.9141 18.0871L30.2567 12.2227" stroke="#009B97" stroke-width="2" stroke-miterlimit="10" stroke-linecap="round" stroke-linejoin="round"/>
<path d="M27.6445 32.2199L32.9872 26.3555" stroke="#009B97" stroke-width="2" stroke-miterlimit="10" stroke-linecap="round" stroke-linejoin="round"/>
<path d="M3.125 18.0859H24.9095" stroke="#009B97" stroke-width="2" stroke-miterlimit="10" stroke-linecap="round" stroke-linejoin="round"/>
<path d="M3.125 32.2227H27.6436" stroke="#009B97" stroke-width="2" stroke-miterlimit="10" stroke-linecap="round" stroke-linejoin="round"/>
<path d="M1.60938 46.3164H4.65695" stroke="#009B97" stroke-width="2" stroke-miterlimit="10" stroke-linecap="round" stroke-linejoin="round"/>
<path d="M7.98047 41.543H11.028" stroke="#009B97" stroke-width="2" stroke-miterlimit="10" stroke-linecap="round" stroke-linejoin="round"/>
<path d="M35.4947 41.6671C36.9631 41.6671 38.1535 40.4903 38.1535 39.0386C38.1535 37.587 36.9631 36.4102 35.4947 36.4102C34.0263 36.4102 32.8359 37.587 32.8359 39.0386C32.8359 40.4903 34.0263 41.6671 35.4947 41.6671Z" stroke="#009B97" stroke-width="2" stroke-miterlimit="10" stroke-linecap="round" stroke-linejoin="round"/>
<path d="M29.7135 46.3194C31.1819 46.3194 32.3723 45.1426 32.3723 43.691C32.3723 42.2393 31.1819 41.0625 29.7135 41.0625C28.2451 41.0625 27.0547 42.2393 27.0547 43.691C27.0547 45.1426 28.2451 46.3194 29.7135 46.3194Z" stroke="#009B97" stroke-width="2" stroke-miterlimit="10" stroke-linecap="round" stroke-linejoin="round"/>
</svg>
