<svg width="22" height="22" viewBox="0 0 22 22" fill="none" xmlns="http://www.w3.org/2000/svg">
<path d="M21.8002 17.8588C21.8002 18.2488 21.7135 18.6496 21.5293 19.0396C21.3452 19.4296 21.1069 19.798 20.7927 20.1446C20.2619 20.7296 19.6768 21.1521 19.016 21.423C18.366 21.6938 17.6618 21.8346 16.9035 21.8346C15.7985 21.8346 14.6177 21.5746 13.3718 21.0438C12.126 20.513 10.8802 19.798 9.64518 18.8988C8.39935 17.9888 7.21852 16.9813 6.09185 15.8655C4.97602 14.7388 3.96852 13.558 3.06935 12.323C2.18102 11.088 1.46602 9.85297 0.946016 8.6288C0.426016 7.3938 0.166016 6.21297 0.166016 5.0863C0.166016 4.34964 0.296016 3.64547 0.556016 2.99547C0.816015 2.33464 1.22768 1.72797 1.80185 1.1863C2.49518 0.503802 3.25352 0.167969 4.05518 0.167969C4.35852 0.167969 4.66185 0.232969 4.93268 0.362969C5.21435 0.492969 5.46352 0.687969 5.65852 0.969635L8.17185 4.51214C8.36685 4.78297 8.50768 5.03214 8.60518 5.27047C8.70268 5.49797 8.75685 5.72547 8.75685 5.9313C8.75685 6.1913 8.68102 6.4513 8.52935 6.70047C8.38852 6.94964 8.18268 7.20964 7.92268 7.46964L7.09935 8.32547C6.98018 8.44464 6.92602 8.58547 6.92602 8.7588C6.92602 8.84547 6.93685 8.9213 6.95852 9.00797C6.99102 9.09464 7.02352 9.15964 7.04518 9.22464C7.24018 9.58214 7.57602 10.048 8.05268 10.6113C8.54018 11.1746 9.06018 11.7488 9.62352 12.323C10.2085 12.8971 10.7718 13.428 11.346 13.9155C11.9093 14.3921 12.3752 14.7171 12.7435 14.9121C12.7977 14.9338 12.8627 14.9663 12.9385 14.9988C13.0252 15.0313 13.1118 15.0421 13.2093 15.0421C13.3935 15.0421 13.5343 14.9771 13.6535 14.858L14.4768 14.0455C14.7477 13.7746 15.0077 13.5688 15.2569 13.4388C15.506 13.2871 15.7552 13.2113 16.026 13.2113C16.2318 13.2113 16.4485 13.2546 16.6868 13.3521C16.9252 13.4496 17.1743 13.5905 17.4452 13.7746L21.031 16.3205C21.3127 16.5155 21.5077 16.743 21.6268 17.0138C21.7352 17.2846 21.8002 17.5555 21.8002 17.8588Z" fill="#009B97"/>
</svg>
