<svg width="246" height="50" viewBox="0 0 246 50" fill="none" xmlns="http://www.w3.org/2000/svg">
<path fill-rule="evenodd" clip-rule="evenodd" d="M232.74 12.1969C232.598 12.4822 232.455 12.9815 232.241 13.4808C232.027 14.0514 231.813 14.6221 231.528 15.4067C231.243 16.1199 230.957 16.9045 230.601 17.7604C230.244 18.6164 229.959 19.5436 229.602 20.4709H235.807C235.451 19.5436 235.166 18.6164 234.809 17.7604C234.524 16.9045 234.167 16.1199 233.953 15.4067C233.668 14.6934 233.454 14.0514 233.24 13.5522C233.026 12.9815 232.812 12.5536 232.74 12.1969ZM238.589 29.1014C238.375 28.3168 238.09 27.5323 237.805 26.7477C237.519 25.9631 237.234 25.1785 236.949 24.3939H228.461C228.175 25.1785 227.89 25.9631 227.605 26.819C227.32 27.6036 227.106 28.3882 226.82 29.1728H221.756C222.612 26.819 223.325 24.6792 224.11 22.682C224.823 20.6848 225.536 18.8303 226.25 17.0472C226.963 15.264 227.676 13.6235 228.318 12.0543C229.031 10.4851 229.745 8.91589 230.458 7.41802H235.094C235.807 8.91589 236.521 10.4851 237.234 12.0543C237.947 13.6235 238.661 15.3353 239.302 17.0472C240.016 18.8303 240.729 20.6848 241.442 22.682C242.156 24.6792 242.94 26.819 243.796 29.1728H238.589V29.1014ZM214.552 29.1014C214.124 28.3882 213.625 27.6036 212.983 26.819C212.412 25.9631 211.77 25.1785 211.057 24.3225C210.344 23.4666 209.63 22.682 208.917 21.8974C208.133 21.1128 207.419 20.4709 206.635 19.8289V29.0301H201.713V7.27538H206.635V15.478C207.919 14.1228 209.202 12.7675 210.486 11.341C211.77 9.91447 212.983 8.55927 214.124 7.27538H219.973C218.475 9.05856 216.977 10.7704 215.479 12.3396C213.981 13.9801 212.412 15.6206 210.772 17.2612C212.484 18.6877 214.195 20.4709 215.836 22.468C217.476 24.4652 219.046 26.6763 220.472 29.1014H214.552ZM177.89 29.1014V7.34669H182.74V20.1856C183.525 19.0443 184.309 17.9031 185.165 16.6192C186.021 15.4066 186.877 14.1941 187.733 13.0529C188.589 11.9116 189.445 10.8417 190.301 9.84314C191.157 8.84456 191.87 7.98865 192.583 7.27538H196.578V29.0301H191.727V14.7647C189.873 16.9045 188.161 19.187 186.52 21.6834C184.88 24.1086 183.382 26.605 181.956 29.1014H177.89ZM167.975 7.27538H172.897V29.0301H167.975V19.7576H159.773V29.0301H154.851V7.27538H159.773V15.6206H167.975V7.27538ZM150.786 18.1884C150.786 20.0429 150.5 21.6834 149.93 23.11C149.359 24.5365 148.646 25.6777 147.647 26.6763C146.649 27.6036 145.507 28.3168 144.224 28.8161C142.868 29.3154 141.442 29.5294 139.944 29.5294C138.446 29.5294 137.019 29.3154 135.736 28.8161C134.38 28.3168 133.239 27.6036 132.312 26.6763C131.313 25.7491 130.529 24.5365 129.958 23.11C129.387 21.6834 129.102 20.0429 129.102 18.1884C129.102 16.3339 129.387 14.6934 129.958 13.2668C130.529 11.8403 131.313 10.6277 132.312 9.70049C133.31 8.70192 134.452 7.98865 135.736 7.56068C137.019 7.06139 138.446 6.84741 139.873 6.84741C141.37 6.84741 142.797 7.06139 144.081 7.56068C145.436 8.05997 146.577 8.77324 147.505 9.70049C148.503 10.6991 149.288 11.8403 149.858 13.2668C150.5 14.6934 150.786 16.2626 150.786 18.1884ZM134.095 18.1884C134.095 19.2583 134.238 20.2569 134.523 21.1128C134.808 21.9687 135.165 22.682 135.664 23.324C136.164 23.9659 136.734 24.3939 137.447 24.7505C138.161 25.1071 138.945 25.2498 139.873 25.2498C140.8 25.2498 141.584 25.1071 142.298 24.7505C143.011 24.3939 143.653 23.9659 144.152 23.324C144.651 22.682 145.008 21.9687 145.293 21.1128C145.579 20.2569 145.721 19.2583 145.721 18.1884C145.721 17.1185 145.579 16.1199 145.293 15.264C145.008 14.4081 144.651 13.6235 144.152 13.0529C143.653 12.4109 143.082 11.9829 142.298 11.6263C141.584 11.2697 140.728 11.127 139.873 11.127C138.945 11.127 138.161 11.2697 137.447 11.6263C136.734 11.9829 136.164 12.4822 135.664 13.0529C135.165 13.6948 134.808 14.4081 134.523 15.264C134.238 16.1912 134.095 17.1185 134.095 18.1884ZM106.206 29.1014V7.34669H111.056V20.1856C111.841 19.0443 112.626 17.9031 113.482 16.6192C114.337 15.4066 115.193 14.1941 116.049 13.0529C116.905 11.9116 117.761 10.8417 118.617 9.84314C119.473 8.84456 120.186 7.98865 120.9 7.27538H124.894V29.0301H120.044V14.7647C118.189 16.9045 116.477 19.187 114.837 21.6834C113.196 24.1086 111.698 26.605 110.272 29.1014H106.206ZM89.8723 15.8346H92.2974C93.7952 15.8346 94.8652 15.6206 95.5071 15.264C96.149 14.9074 96.5057 14.2654 96.5057 13.4095C96.5057 12.5536 96.149 11.9116 95.5071 11.555C94.8652 11.1984 93.8666 11.0557 92.5827 11.0557C92.1547 11.0557 91.7268 11.0557 91.2275 11.0557C90.7282 11.0557 90.3002 11.127 89.9436 11.127V15.8346H89.8723ZM89.8723 19.5436V25.1785C90.2289 25.2498 90.5855 25.2498 91.0135 25.2498C91.4415 25.2498 91.8694 25.2498 92.3687 25.2498C93.8666 25.2498 95.0078 25.0358 95.9351 24.6078C96.8623 24.1799 97.2903 23.3953 97.2903 22.2541C97.2903 21.2555 96.9336 20.5422 96.149 20.1143C95.3644 19.6863 94.2945 19.4723 92.9393 19.4723H89.8723V19.5436ZM92.3687 29.3868C91.1561 29.3868 90.0149 29.3154 88.8024 29.2441C87.5898 29.1728 86.3772 29.0301 85.0933 28.7448V7.63201C86.0919 7.41803 87.2332 7.27537 88.3744 7.20405C89.5869 7.13272 90.6569 7.06138 91.7268 7.06138C93.082 7.06138 94.3659 7.13271 95.5784 7.34669C96.7197 7.56067 97.7183 7.91732 98.5742 8.34528C99.4301 8.84457 100.072 9.4865 100.571 10.2711C101.071 11.0557 101.285 12.0543 101.285 13.1955C101.285 14.9074 100.429 16.3339 98.7881 17.3325C100.143 17.8318 101.142 18.545 101.641 19.4723C102.141 20.3995 102.426 21.3981 102.426 22.5394C102.426 24.8218 101.57 26.5337 99.9294 27.6749C98.1462 28.8161 95.6498 29.3868 92.3687 29.3868ZM71.1846 12.1969C71.0419 12.4822 70.8993 12.9815 70.6853 13.4808C70.4713 14.0514 70.2573 14.6221 69.972 15.4067C69.6867 16.1199 69.4014 16.9045 69.0448 17.7604C68.6881 18.6164 68.4028 19.5436 68.0462 20.4709H74.2516C73.895 19.5436 73.6097 18.6164 73.2531 17.7604C72.9677 16.9045 72.6111 16.1199 72.3971 15.4067C72.1118 14.6934 71.8978 14.0514 71.6839 13.5522C71.4699 12.9815 71.2559 12.5536 71.1846 12.1969ZM77.0334 29.1014C76.8194 28.3168 76.5341 27.5323 76.2488 26.7477C75.9635 25.9631 75.6782 25.1785 75.3929 24.3939H66.9049C66.6196 25.1785 66.3343 25.9631 66.049 26.819C65.7637 27.6036 65.5497 28.3882 65.2644 29.1728H60.2002C61.0561 26.819 61.7694 24.6792 62.554 22.682C63.2673 20.6848 63.9805 18.8303 64.6938 17.0472C65.4071 15.264 66.1204 13.6235 66.7623 12.0543C67.4756 10.4851 68.1888 8.91589 68.9021 7.41802H73.5384C74.2516 8.91589 74.9649 10.4851 75.6782 12.0543C76.3914 13.6235 77.1047 15.3353 77.7467 17.0472C78.4599 18.8303 79.1732 20.6848 79.8865 22.682C80.5997 24.6792 81.3843 26.819 82.2403 29.1728H77.0334V29.1014Z" fill="#009B97"/>
<path fill-rule="evenodd" clip-rule="evenodd" d="M28.7439 11.1984C28.7439 13.1955 26.818 14.7647 24.3929 14.7647C21.9678 14.7647 20.042 13.1955 20.042 11.2697V11.1984C20.042 11.1984 20.042 11.1984 20.042 11.127C20.042 9.2012 21.9678 7.63201 24.3929 7.63201C26.7467 7.56068 28.7439 9.2012 28.7439 11.1984C28.7439 11.127 28.7439 11.127 28.7439 11.1984ZM35.2346 13.7661C31.5256 16.1199 26.5327 17.6178 21.1119 17.6178C15.8337 17.6178 10.9834 16.2626 7.27441 13.9801H13.9792V1.71185C13.9792 0.784593 14.7638 0 15.691 0H33.4514C34.3787 0 35.1633 0.784593 35.1633 1.71185V13.7661H35.2346Z" fill="#009B97"/>
<path fill-rule="evenodd" clip-rule="evenodd" d="M35.2354 40.6565C30.8131 37.6608 27.8887 32.8819 27.8887 27.461C27.8887 21.8975 30.9557 16.9046 35.7346 13.9802H47.5036C48.4309 13.9802 49.2155 14.7648 49.2155 15.6921V33.4525C49.2155 34.3798 48.4309 35.1644 47.5036 35.1644H35.2354V40.6565Z" fill="#C22B6B"/>
<path fill-rule="evenodd" clip-rule="evenodd" d="M7.56067 17.8318C17.7604 17.8318 26.0344 24.3939 26.0344 32.3825C26.0344 38.6593 21.0415 44.0088 13.9801 46.0773V35.2356H1.71185C0.784599 35.2356 0 34.451 0 33.5237V19.1157C2.28247 18.2597 4.85024 17.8318 7.56067 17.8318Z" fill="#009B97"/>
<path fill-rule="evenodd" clip-rule="evenodd" d="M29.1022 39.9434C31.3846 39.9434 33.5244 40.8706 35.3076 42.4398V47.29C35.3076 48.5026 34.6657 49.2872 33.3105 49.2872H18.8311C20.3289 43.795 24.3232 39.9434 29.1022 39.9434Z" fill="#C22B6B"/>
<path d="M66.1202 43.0815C66.3342 42.7962 66.4769 42.5109 66.6195 42.1543C66.6908 41.7977 66.7622 41.3697 66.7622 40.9417C66.7622 40.4424 66.6908 40.0145 66.6195 39.6579C66.4769 39.3012 66.3342 39.0159 66.1916 38.8019C65.9776 38.5879 65.7636 38.4453 65.5496 38.3026C65.3356 38.2313 65.0503 38.16 64.765 38.16C64.4797 38.16 64.2657 38.2313 63.9804 38.3026C63.7664 38.374 63.5525 38.5879 63.3385 38.8019C63.1245 39.0159 62.9818 39.3012 62.9105 39.6579C62.7679 40.0145 62.7679 40.4424 62.7679 40.9417C62.7679 41.441 62.8392 41.869 62.9105 42.2256C63.0532 42.5823 63.1958 42.8676 63.3385 43.0815C63.5525 43.2955 63.7664 43.4382 63.9804 43.5808C64.2657 43.6522 64.4797 43.7235 64.765 43.7235C65.0503 43.7235 65.3356 43.6522 65.5496 43.5808C65.6923 43.4382 65.9062 43.2955 66.1202 43.0815ZM68.9733 40.9417C68.9733 42.2969 68.6167 43.2955 67.8321 44.0801C67.0475 44.8647 66.0489 45.2214 64.6937 45.2214C63.3385 45.2214 62.2686 44.8647 61.5553 44.0801C60.7707 43.2955 60.4141 42.2256 60.4141 40.9417C60.4141 39.5865 60.7707 38.5166 61.5553 37.8033C62.3399 37.0187 63.3385 36.6621 64.6937 36.6621C66.0489 36.6621 67.0475 37.0187 67.8321 37.8033C68.6167 38.5879 68.9733 39.6578 68.9733 40.9417Z" fill="#C22B6B"/>
<path d="M75.2496 39.5151C75.2496 39.3011 75.1783 39.0872 75.0356 38.9445C74.8929 38.8018 74.7503 38.6592 74.6076 38.5879C74.3937 38.5165 74.1797 38.4452 73.9657 38.4452C73.7517 38.4452 73.4664 38.4452 73.1098 38.4452H72.7531V40.9416H73.3951C73.7517 40.9416 74.037 40.9416 74.3223 40.8703C74.5363 40.799 74.7503 40.7277 74.8929 40.585C75.0356 40.4424 75.1069 40.2997 75.1783 40.157C75.2496 39.9431 75.2496 39.7291 75.2496 39.5151ZM77.4607 39.4438C77.4607 39.8004 77.3894 40.157 77.2467 40.5137C77.1041 40.8703 76.9614 41.1556 76.6761 41.4409C76.3195 41.7976 75.9628 42.0116 75.5349 42.1542C75.1069 42.2969 74.6076 42.4395 74.037 42.4395H72.6818V45.1499H70.542V36.8047H74.1083C74.6076 36.8047 75.1069 36.876 75.4636 36.9473C75.8202 37.0187 76.1768 37.1613 76.4621 37.3753C76.8188 37.5893 77.0328 37.8746 77.2467 38.2312C77.3894 38.5165 77.4607 38.9445 77.4607 39.4438Z" fill="#C22B6B"/>
<path d="M85.5205 38.4452H82.9527V45.1499H80.8129V38.4452H78.1738V36.8047H85.5205V38.4452Z" fill="#C22B6B"/>
<path d="M92.0831 43.0813C92.2971 42.796 92.4398 42.5107 92.5824 42.1541C92.6537 41.7974 92.7251 41.3695 92.7251 40.9415C92.7251 40.4422 92.6537 40.0142 92.5824 39.6576C92.4398 39.301 92.2971 39.0157 92.1544 38.8017C91.9405 38.5877 91.7265 38.4451 91.5125 38.3024C91.2985 38.2311 91.0132 38.1597 90.7279 38.1597C90.4426 38.1597 90.2286 38.2311 89.9433 38.3024C89.7293 38.3737 89.5153 38.5877 89.3014 38.8017C89.0874 39.0157 88.9447 39.301 88.8734 39.6576C88.7307 40.0142 88.7307 40.4422 88.7307 40.9415C88.7307 41.4408 88.8021 41.8688 88.8734 42.2254C89.0161 42.582 89.1587 42.8673 89.3014 43.0813C89.5153 43.2953 89.7293 43.4379 89.9433 43.5806C90.2286 43.6519 90.4426 43.7232 90.7279 43.7232C91.0132 43.7232 91.2985 43.6519 91.5125 43.5806C91.6552 43.4379 91.8691 43.2953 92.0831 43.0813ZM94.9362 40.9415C94.9362 42.2967 94.5796 43.2953 93.795 44.0799C93.0104 44.8645 92.0118 45.2211 90.6566 45.2211C89.3014 45.2211 88.2315 44.8645 87.5182 44.0799C86.7336 43.2953 86.377 42.2254 86.377 40.9415C86.377 39.5863 86.7336 38.5164 87.5182 37.8031C88.3028 37.0185 89.3014 36.6619 90.6566 36.6619C92.0118 36.6619 93.0104 37.0185 93.795 37.8031C94.5796 38.5877 94.9362 39.6576 94.9362 40.9415Z" fill="#C22B6B"/>
<path d="M104.066 45.1502H101.927V38.4454H98.717V45.1502H96.5771V36.8049H104.066V45.1502Z" fill="#C22B6B"/>
<path d="M112.198 45.1499H106.206V36.8047H112.198V38.4452H108.346V39.8717H111.912V41.4409H108.346V43.5094H112.198V45.1499Z" fill="#C22B6B"/>
<path d="M119.187 43.5094V38.4452H117.118C117.047 39.4438 116.904 40.371 116.69 41.227C116.476 42.0829 116.191 42.8675 115.906 43.5094H119.187ZM122.183 47.0758H120.185V45.1499H115.192V47.0758H113.195V43.5094H113.837C114.265 42.5822 114.622 41.5836 114.836 40.4424C115.05 39.3011 115.192 38.0886 115.192 36.8047H121.398V43.5094H122.254V47.0758H122.183Z" fill="#C22B6B"/>
<path d="M131.314 45.1499H129.174V39.5864L125.75 45.1499H123.682V36.8047H125.75V41.7976L128.96 36.8047H131.314V45.1499Z" fill="#C22B6B"/>
<path d="M140.3 45.1499H138.16V42.0828C137.732 42.1542 137.375 42.2255 137.09 42.2968C136.805 42.3681 136.377 42.3681 135.877 42.3681C135.521 42.3681 135.164 42.2968 134.808 42.2255C134.451 42.1542 134.166 42.0115 133.952 41.7975C133.666 41.5836 133.524 41.3696 133.381 41.0129C133.238 40.7276 133.167 40.371 133.167 39.943V36.876H135.307V38.8731C135.307 39.2298 135.307 39.4437 135.378 39.6577C135.378 39.8717 135.521 40.0857 135.592 40.2283C135.735 40.371 135.877 40.5136 136.091 40.585C136.305 40.6563 136.662 40.7276 137.019 40.7276C137.161 40.7276 137.375 40.7276 137.589 40.7276C137.803 40.7276 138.017 40.6563 138.16 40.6563V36.876H140.3V45.1499Z" fill="#C22B6B"/>
<path d="M148.432 45.1499H142.369V36.8047H148.432V38.4452H144.58V39.8717H148.147V41.4409H144.58V43.5094H148.432V45.1499Z" fill="#C22B6B"/>
<path d="M153.995 45.2926C153.353 45.2926 152.783 45.2213 152.284 45.0073C151.784 44.7934 151.285 44.5794 150.928 44.2227C150.572 43.8661 150.286 43.4381 150.072 42.8675C149.858 42.2969 149.787 41.7263 149.787 41.013C149.787 40.3711 149.858 39.7291 150.072 39.2298C150.286 38.6592 150.572 38.2313 150.928 37.8746C151.285 37.518 151.713 37.2327 152.284 37.0187C152.854 36.8047 153.425 36.7334 154.067 36.7334C154.423 36.7334 154.709 36.7334 154.994 36.8047C155.279 36.8761 155.565 36.876 155.779 36.9474C156.064 37.0187 156.278 37.09 156.492 37.1614C156.706 37.2327 156.848 37.304 157.062 37.3753V39.3725H156.848C156.777 39.3012 156.634 39.1585 156.421 39.0872C156.278 38.9445 156.064 38.8732 155.85 38.7305C155.636 38.5879 155.422 38.5166 155.208 38.4452C154.994 38.3739 154.709 38.3026 154.423 38.3026C154.138 38.3026 153.853 38.3739 153.567 38.4452C153.282 38.5166 153.068 38.7306 152.783 38.9445C152.569 39.1585 152.355 39.4438 152.212 39.8005C152.07 40.1571 151.998 40.5851 151.998 41.0844C151.998 41.5836 152.07 42.0116 152.212 42.3682C152.355 42.7249 152.569 43.0102 152.783 43.2242C152.997 43.4381 153.282 43.5808 153.567 43.6521C153.853 43.7235 154.138 43.7948 154.423 43.7948C154.709 43.7948 154.923 43.7235 155.208 43.6521C155.493 43.5808 155.707 43.4381 155.921 43.3668C156.135 43.2955 156.278 43.1528 156.421 43.0102C156.563 42.8675 156.706 42.7962 156.777 42.7249H156.991V44.722C156.777 44.7934 156.563 44.936 156.421 45.0073C156.207 45.0787 156.064 45.15 155.85 45.2213C155.565 45.2926 155.351 45.364 155.065 45.4353C154.78 45.2927 154.423 45.2926 153.995 45.2926Z" fill="#C22B6B"/>
<path d="M166.335 45.15H163.696L161.2 41.7976H160.7V45.15H158.561V36.8047H160.7V40.2284C160.843 40.2284 161.057 40.2284 161.128 40.1571C161.271 40.1571 161.342 40.0858 161.414 40.0144C161.485 39.9431 161.628 39.8005 161.77 39.6578C161.913 39.5152 161.984 39.3012 162.127 39.0872C162.198 38.9445 162.27 38.8019 162.412 38.5879C162.484 38.3739 162.626 38.2313 162.626 38.1599C162.912 37.6607 163.197 37.304 163.553 37.09C163.839 36.8761 164.338 36.7334 164.98 36.7334C165.194 36.7334 165.337 36.7334 165.479 36.7334C165.622 36.7334 165.765 36.7334 165.836 36.7334V38.5166H165.194C164.909 38.5166 164.623 38.5879 164.481 38.7305C164.338 38.8732 164.124 39.1585 163.91 39.5865C163.696 40.0144 163.553 40.2284 163.411 40.4424C163.268 40.5851 163.125 40.7277 163.054 40.7991L166.335 45.15Z" fill="#C22B6B"/>
<path d="M174.966 45.1499H172.897V39.5864L169.402 45.1499H167.405V36.8047H169.474V41.7976L172.683 36.8047H174.966V45.1499Z" fill="#C22B6B"/>
<path d="M183.096 45.1502H177.104V36.8049H183.096V38.4454H179.244V39.872H182.811V41.4412H179.244V43.5097H183.096V45.1502Z" fill="#C22B6B"/>
<path d="M192.583 45.2926C191.941 45.2926 191.371 45.2213 190.871 45.0073C190.372 44.7934 189.873 44.5794 189.516 44.2227C189.16 43.8661 188.874 43.4381 188.66 42.8675C188.446 42.2969 188.375 41.7263 188.375 41.013C188.375 40.3711 188.446 39.7291 188.66 39.2298C188.874 38.6592 189.16 38.2313 189.516 37.8746C189.873 37.518 190.301 37.2327 190.871 37.0187C191.442 36.8047 192.013 36.7334 192.655 36.7334C193.011 36.7334 193.297 36.7334 193.582 36.8047C193.867 36.8761 194.152 36.876 194.366 36.9474C194.652 37.0187 194.866 37.09 195.08 37.1614C195.294 37.2327 195.436 37.304 195.65 37.3753V39.3725H195.436C195.365 39.3012 195.222 39.1585 195.008 39.0872C194.866 38.9445 194.652 38.8732 194.438 38.7305C194.224 38.5879 194.01 38.5166 193.796 38.4452C193.582 38.3739 193.297 38.3026 193.011 38.3026C192.726 38.3026 192.441 38.3739 192.155 38.4452C191.87 38.5166 191.656 38.7306 191.371 38.9445C191.157 39.1585 190.943 39.4438 190.8 39.8005C190.657 40.1571 190.586 40.5851 190.586 41.0844C190.586 41.5836 190.657 42.0116 190.8 42.3682C190.943 42.7249 191.157 43.0102 191.371 43.2242C191.585 43.4381 191.87 43.5808 192.155 43.6521C192.441 43.7235 192.726 43.7948 193.011 43.7948C193.297 43.7948 193.511 43.7235 193.796 43.6521C194.081 43.5808 194.295 43.4381 194.509 43.3668C194.723 43.2955 194.866 43.1528 195.008 43.0102C195.151 42.8675 195.294 42.7962 195.365 42.7249H195.579V44.722C195.365 44.7934 195.151 44.936 195.008 45.0073C194.794 45.0787 194.652 45.15 194.438 45.2213C194.152 45.2926 193.939 45.364 193.653 45.4353C193.368 45.2927 193.011 45.2926 192.583 45.2926Z" fill="#C22B6B"/>
<path d="M201.499 41.9402L200.5 38.9445L199.502 41.9402H201.499ZM204.851 45.1499H202.64L202.069 43.4381H199.002L198.432 45.1499H196.292L199.359 36.8047H201.855L204.851 45.1499Z" fill="#C22B6B"/>
<path d="M213.625 45.1499H211.485V38.4452H209.131C209.131 38.8018 209.131 39.0871 209.06 39.3011C209.06 39.5151 209.06 39.8004 208.988 40.157C208.917 40.9416 208.846 41.5122 208.774 42.0828C208.703 42.5821 208.56 43.0101 208.418 43.3667C208.275 43.7234 208.132 44.0087 207.99 44.2227C207.847 44.4366 207.705 44.5793 207.562 44.722C207.348 44.8646 207.134 45.0072 206.849 45.1499C206.563 45.2212 206.278 45.2926 205.993 45.2926C205.779 45.2926 205.636 45.2926 205.422 45.2926C205.208 45.2926 205.065 45.2926 205.065 45.2926V43.4381H205.137C205.137 43.4381 205.208 43.4381 205.279 43.4381C205.351 43.4381 205.351 43.4381 205.422 43.4381C205.636 43.4381 205.779 43.438 205.921 43.3667C205.993 43.3667 206.135 43.2954 206.207 43.2241C206.492 42.9388 206.706 42.5821 206.777 42.0115C206.849 41.4409 206.991 40.7276 206.991 39.7291C206.991 39.3724 207.063 38.9444 207.063 38.4452C207.063 38.0172 207.063 37.4466 207.134 36.876H213.696V45.1499H213.625Z" fill="#C22B6B"/>
<path d="M220.972 43.0815C221.186 42.7962 221.328 42.5109 221.471 42.1543C221.542 41.7977 221.614 41.3697 221.614 40.9417C221.614 40.4424 221.542 40.0145 221.471 39.6579C221.328 39.3012 221.186 39.0159 221.043 38.8019C220.829 38.5879 220.615 38.4453 220.401 38.3026C220.187 38.2313 219.902 38.16 219.617 38.16C219.331 38.16 219.117 38.2313 218.832 38.3026C218.618 38.374 218.404 38.5879 218.19 38.8019C217.976 39.0159 217.833 39.3012 217.762 39.6579C217.619 40.0145 217.619 40.4424 217.619 40.9417C217.619 41.441 217.691 41.869 217.762 42.2256C217.905 42.5823 218.047 42.8676 218.19 43.0815C218.404 43.2955 218.618 43.4382 218.832 43.5808C219.117 43.6522 219.331 43.7235 219.617 43.7235C219.902 43.7235 220.187 43.6522 220.401 43.5808C220.615 43.4382 220.829 43.2955 220.972 43.0815ZM223.825 40.9417C223.825 42.2969 223.468 43.2955 222.684 44.0801C221.899 44.8647 220.9 45.2214 219.545 45.2214C218.19 45.2214 217.12 44.8647 216.407 44.0801C215.622 43.2955 215.266 42.2256 215.266 40.9417C215.266 39.5865 215.622 38.5166 216.407 37.8033C217.191 37.0187 218.19 36.6621 219.545 36.6621C220.9 36.6621 221.899 37.0187 222.684 37.8033C223.468 38.5879 223.825 39.6578 223.825 40.9417Z" fill="#C22B6B"/>
<path d="M232.955 45.1499H230.815V41.4409H227.677V45.1499H225.466V36.8047H227.677V39.8717H230.815V36.8047H232.955V45.1499Z" fill="#C22B6B"/>
<path d="M245.152 45.1502H243.012V36.8049H245.152V45.1502ZM242.227 42.4398C242.227 42.8677 242.156 43.2244 242.013 43.581C241.871 43.9376 241.657 44.2229 241.372 44.4369C241.015 44.7222 240.658 44.8649 240.302 45.0075C239.945 45.0789 239.517 45.1502 238.946 45.1502H235.095V36.8049H237.235V39.9433H238.946C239.517 39.9433 240.016 40.0147 240.373 40.086C240.73 40.1573 241.086 40.2999 241.372 40.5139C241.657 40.7279 241.871 41.0132 242.013 41.3699C242.156 41.6552 242.227 42.0831 242.227 42.4398ZM239.945 42.5111C239.945 42.3684 239.945 42.2258 239.874 42.1545C239.874 42.0118 239.802 41.9405 239.66 41.7978C239.588 41.7265 239.446 41.5838 239.232 41.5838C239.089 41.5125 238.804 41.5125 238.518 41.5125H237.163V43.6523H238.518C238.732 43.6523 238.946 43.6523 239.16 43.581C239.374 43.5097 239.517 43.4383 239.588 43.367C239.66 43.2957 239.731 43.153 239.802 43.0817C239.945 42.7964 239.945 42.6538 239.945 42.5111Z" fill="#C22B6B"/>
</svg>
