<svg width="17" height="18" viewBox="0 0 17 18" fill="none" xmlns="http://www.w3.org/2000/svg">
<path d="M2.94106 3.10076L14.885 4.27649C15.7031 4.35703 16.304 5.08107 16.2323 5.90002L16.0781 7.66289C16.0192 8.3364 15.517 8.88725 14.8518 9.00802L5.0089 10.7951M0.791992 1.63354L1.75504 1.83368C2.33507 1.95422 2.78982 2.40485 2.91563 2.98376L5.1355 13.1986C5.28536 13.8882 5.89561 14.3801 6.60129 14.3801H16.1262" stroke="#1B1B1B" stroke-width="1.3" stroke-linecap="round"/>
<mask id="path-2-inside-1_457_5958" fill="white">
<ellipse cx="5.15267" cy="16.8958" rx="1.09017" ry="1.09017"/>
</mask>
<ellipse cx="5.15267" cy="16.8958" rx="1.09017" ry="1.09017" fill="#1B1B1B"/>
<path d="M4.94283 16.8958C4.94283 16.7799 5.03678 16.686 5.15267 16.686V19.286C6.47272 19.286 7.54283 18.2159 7.54283 16.8958H4.94283ZM5.15267 16.686C5.26855 16.686 5.3625 16.7799 5.3625 16.8958H2.7625C2.7625 18.2159 3.83261 19.286 5.15267 19.286V16.686ZM5.3625 16.8958C5.3625 17.0117 5.26855 17.1057 5.15267 17.1057V14.5057C3.83261 14.5057 2.7625 15.5758 2.7625 16.8958H5.3625ZM5.15267 17.1057C5.03678 17.1057 4.94283 17.0117 4.94283 16.8958H7.54283C7.54283 15.5758 6.47272 14.5057 5.15267 14.5057V17.1057Z" fill="#1B1B1B" mask="url(#path-2-inside-1_457_5958)"/>
<circle cx="13.2025" cy="16.8958" r="0.65" fill="#1B1B1B" stroke="#1B1B1B" stroke-width="0.880333"/>
</svg>
