<svg width="18" height="17" viewBox="0 0 18 17" fill="none" xmlns="http://www.w3.org/2000/svg">
<path d="M9.56088 5.24902C9.56088 4.93836 9.30904 4.68652 8.99838 4.68652C8.68772 4.68652 8.43588 4.93836 8.43588 5.24902V9.74902C8.43588 10.0597 8.68772 10.3115 8.99838 10.3115C9.30904 10.3115 9.56088 10.0597 9.56088 9.74902V5.24902Z" fill="#009B97"/>
<path fill-rule="evenodd" clip-rule="evenodd" d="M10.7524 1.30936C9.6359 0.812245 8.36086 0.812245 7.24433 1.30936C6.54621 1.62018 5.98247 2.21584 5.4003 3.03984C4.81996 3.86124 4.17005 4.98693 3.33043 6.4412L3.29975 6.49434C2.46013 7.94861 1.8102 9.0743 1.38902 9.98758C0.966494 10.9038 0.732512 11.6898 0.812391 12.4498C0.940146 13.6653 1.57766 14.7695 2.56644 15.4879C3.18468 15.9371 3.98241 16.1275 4.9871 16.2196C5.98861 16.3115 7.28843 16.3115 8.96765 16.3115H9.02907C10.7083 16.3115 12.0081 16.3115 13.0097 16.2196C14.0144 16.1275 14.8121 15.9371 15.4303 15.4879C16.4191 14.7695 17.0566 13.6653 17.1844 12.4498C17.2643 11.6898 17.0303 10.9038 16.6077 9.98758C16.1866 9.07429 15.5366 7.94859 14.697 6.4943L14.6663 6.44114C13.8267 4.9869 13.1768 3.86123 12.5965 3.03984C12.0143 2.21584 11.4505 1.62018 10.7524 1.30936ZM7.70191 2.3371C8.52717 1.96967 9.46959 1.96967 10.2949 2.3371C10.7098 2.52186 11.1289 2.91237 11.6777 3.689C12.2247 4.46323 12.8493 5.54393 13.7074 7.03027C14.5655 8.51661 15.1891 9.59788 15.5862 10.4587C15.9844 11.3222 16.113 11.8804 16.0655 12.3322C15.9711 13.2306 15.4999 14.0468 14.7691 14.5778C14.4016 14.8448 13.8538 15.0125 12.9069 15.0994C11.9629 15.186 10.7147 15.1865 8.99838 15.1865C7.2821 15.1865 6.03389 15.186 5.08988 15.0994C4.14295 15.0125 3.59521 14.8448 3.2277 14.5778C2.49686 14.0468 2.02566 13.2306 1.93123 12.3322C1.88374 11.8804 2.01238 11.3222 2.41061 10.4587C2.80761 9.59788 3.43123 8.51661 4.28937 7.03027C5.14751 5.54393 5.7721 4.46323 6.31911 3.689C6.86781 2.91237 7.28692 2.52186 7.70191 2.3371Z" fill="#009B97"/>
<path d="M9.74841 11.999C9.74841 12.4132 9.41263 12.749 8.99841 12.749C8.5842 12.749 8.24841 12.4132 8.24841 11.999C8.24841 11.5848 8.5842 11.249 8.99841 11.249C9.41263 11.249 9.74841 11.5848 9.74841 11.999Z" fill="#009B97"/>
</svg>
