<svg width="22" height="22" viewBox="0 0 22 22" fill="none" xmlns="http://www.w3.org/2000/svg">
<path d="M3.80653 2.71832L19.6977 4.28262C20.5158 4.36316 21.1167 5.0872 21.0451 5.90614L20.7781 8.95773C20.7191 9.63124 20.2169 10.1821 19.5517 10.3029L6.48257 12.6758M1.02539 0.81958L2.5522 1.13687C3.13223 1.25741 3.58698 1.70804 3.71279 2.28695L6.72192 16.1337C6.87178 16.8233 7.48203 17.3151 8.18771 17.3151H20.8697" stroke="#1B1B1B" stroke-width="1.5" stroke-linecap="round"/>
<mask id="path-2-inside-1_501_4857" fill="white">
<ellipse cx="6.66862" cy="20.571" rx="1.4108" ry="1.4108"/>
</mask>
<ellipse cx="6.66862" cy="20.571" rx="1.4108" ry="1.4108" fill="#1B1B1B"/>
<path d="M6.57942 20.571C6.57942 20.5217 6.61935 20.4818 6.66862 20.4818V23.4818C8.27621 23.4818 9.57942 22.1786 9.57942 20.571H6.57942ZM6.66862 20.4818C6.71788 20.4818 6.75781 20.5217 6.75781 20.571H3.75781C3.75781 22.1786 5.06102 23.4818 6.66862 23.4818V20.4818ZM6.75781 20.571C6.75781 20.6202 6.71788 20.6602 6.66862 20.6602V17.6602C5.06102 17.6602 3.75781 18.9634 3.75781 20.571H6.75781ZM6.66862 20.6602C6.61935 20.6602 6.57942 20.6202 6.57942 20.571H9.57942C9.57942 18.9634 8.27621 17.6602 6.66862 17.6602V20.6602Z" fill="#1B1B1B" mask="url(#path-2-inside-1_501_4857)"/>
<mask id="path-4-inside-2_501_4857" fill="white">
<ellipse cx="17.0866" cy="20.571" rx="1.4108" ry="1.4108"/>
</mask>
<ellipse cx="17.0866" cy="20.571" rx="1.4108" ry="1.4108" fill="#1B1B1B"/>
<path d="M16.9974 20.571C16.9974 20.5217 17.0373 20.4818 17.0866 20.4818V23.4818C18.6942 23.4818 19.9974 22.1786 19.9974 20.571H16.9974ZM17.0866 20.4818C17.1358 20.4818 17.1758 20.5217 17.1758 20.571H14.1758C14.1758 22.1786 15.479 23.4818 17.0866 23.4818V20.4818ZM17.1758 20.571C17.1758 20.6202 17.1358 20.6602 17.0866 20.6602V17.6602C15.479 17.6602 14.1758 18.9634 14.1758 20.571H17.1758ZM17.0866 20.6602C17.0373 20.6602 16.9974 20.6202 16.9974 20.571H19.9974C19.9974 18.9634 18.6942 17.6602 17.0866 17.6602V20.6602Z" fill="#1B1B1B" mask="url(#path-4-inside-2_501_4857)"/>
</svg>
