<svg width="19" height="19" viewBox="0 0 19 19" fill="none" xmlns="http://www.w3.org/2000/svg">
<mask id="mask0_701_6064" style="mask-type:alpha" maskUnits="userSpaceOnUse" x="0" y="0" width="19" height="19">
<rect x="0.65" y="0.65" width="17.7" height="17.7" fill="#4D4D4D" stroke="#4D4D4D" stroke-width="1.3"/>
</mask>
<g mask="url(#mask0_701_6064)">
<path d="M11.3108 17.7316L17.7286 11.3137C18.3137 10.7287 18.3145 9.78042 17.7306 9.19432L9.74344 1.17821C9.46198 0.895733 9.07962 0.73695 8.68086 0.736951L2.23783 0.73695C1.40943 0.73695 0.737869 1.40848 0.737827 2.23687L0.737491 8.74625C0.737471 9.14697 0.897789 9.53104 1.1827 9.81282L9.1953 17.7374C9.78202 18.3177 10.7273 18.3151 11.3108 17.7316Z" stroke="#009B97" stroke-width="1.3"/>
</g>
<circle cx="6.53125" cy="9.5166" r="1.1875" stroke="#009B97" stroke-width="1.3"/>
<circle cx="12.4688" cy="9.5166" r="1.1875" stroke="#009B97" stroke-width="1.3"/>
<path d="M9.19141 5.95117L9.81239 13.0491" stroke="#009B97" stroke-width="1.3" stroke-linecap="round"/>
</svg>
