<svg width="22" height="22" viewBox="0 0 22 22" fill="none" xmlns="http://www.w3.org/2000/svg">
<path d="M3.80653 2.71857L19.6977 4.28287C20.5158 4.3634 21.1167 5.08744 21.0451 5.90639L20.7781 8.95798C20.7191 9.63148 20.2169 10.1823 19.5517 10.3031L6.48257 12.676M1.02539 0.819824L2.5522 1.13711C3.13223 1.25765 3.58698 1.70829 3.71279 2.2872L6.72192 16.1339C6.87178 16.8235 7.48203 17.3154 8.18771 17.3154H20.8697" stroke="#FEFEFE" stroke-width="1.6" stroke-linecap="round"/>
<mask id="path-2-inside-1_133_5497" fill="white">
<ellipse cx="6.66862" cy="20.571" rx="1.4108" ry="1.4108"/>
</mask>
<ellipse cx="6.66862" cy="20.571" rx="1.4108" ry="1.4108" fill="#FEFEFE"/>
<path d="M6.47942 20.571C6.47942 20.4665 6.56413 20.3818 6.66862 20.3818V23.5818C8.33144 23.5818 9.67942 22.2338 9.67942 20.571H6.47942ZM6.66862 20.3818C6.77311 20.3818 6.85781 20.4665 6.85781 20.571H3.65781C3.65781 22.2338 5.0058 23.5818 6.66862 23.5818V20.3818ZM6.85781 20.571C6.85781 20.6755 6.77311 20.7602 6.66862 20.7602V17.5602C5.0058 17.5602 3.65781 18.9081 3.65781 20.571H6.85781ZM6.66862 20.7602C6.56413 20.7602 6.47942 20.6755 6.47942 20.571H9.67942C9.67942 18.9081 8.33144 17.5602 6.66862 17.5602V20.7602Z" fill="#FEFEFE" mask="url(#path-2-inside-1_133_5497)"/>
<mask id="path-4-inside-2_133_5497" fill="white">
<ellipse cx="17.0866" cy="20.571" rx="1.4108" ry="1.4108"/>
</mask>
<ellipse cx="17.0866" cy="20.571" rx="1.4108" ry="1.4108" fill="#FEFEFE"/>
<path d="M16.8974 20.571C16.8974 20.4665 16.9821 20.3818 17.0866 20.3818V23.5818C18.7494 23.5818 20.0974 22.2338 20.0974 20.571H16.8974ZM17.0866 20.3818C17.1911 20.3818 17.2758 20.4665 17.2758 20.571H14.0758C14.0758 22.2338 15.4238 23.5818 17.0866 23.5818V20.3818ZM17.2758 20.571C17.2758 20.6755 17.1911 20.7602 17.0866 20.7602V17.5602C15.4238 17.5602 14.0758 18.9081 14.0758 20.571H17.2758ZM17.0866 20.7602C16.9821 20.7602 16.8974 20.6755 16.8974 20.571H20.0974C20.0974 18.9081 18.7494 17.5602 17.0866 17.5602V20.7602Z" fill="#FEFEFE" mask="url(#path-4-inside-2_133_5497)"/>
</svg>
