<svg width="26" height="27" viewBox="0 0 26 27" fill="none" xmlns="http://www.w3.org/2000/svg">
<path d="M16.2493 2.49866V13.332C16.2493 14.5237 15.2743 15.4987 14.0827 15.4987H2.16602V6.83199C2.16602 4.43782 4.10518 2.49866 6.49935 2.49866H16.2493Z" stroke="#111111" stroke-width="1.3" stroke-linecap="round" stroke-linejoin="round"/>
<path d="M23.8327 15.4987V18.7487C23.8327 20.547 22.381 21.9987 20.5827 21.9987H19.4993C19.4993 20.807 18.5243 19.832 17.3327 19.832C16.141 19.832 15.166 20.807 15.166 21.9987H10.8327C10.8327 20.807 9.85768 19.832 8.66602 19.832C7.47435 19.832 6.49935 20.807 6.49935 21.9987H5.41602C3.61768 21.9987 2.16602 20.547 2.16602 18.7487V15.4987H14.0827C15.2743 15.4987 16.2493 14.5237 16.2493 13.332V5.74866H18.2427C19.0227 5.74866 19.7377 6.17117 20.1277 6.84283L21.9802 10.082H20.5827C19.9868 10.082 19.4993 10.5695 19.4993 11.1653V14.4153C19.4993 15.0112 19.9868 15.4987 20.5827 15.4987H23.8327Z" stroke="#111111" stroke-width="1.3" stroke-linecap="round" stroke-linejoin="round"/>
<path d="M8.66667 24.1654C9.86328 24.1654 10.8333 23.1953 10.8333 21.9987C10.8333 20.8021 9.86328 19.832 8.66667 19.832C7.47005 19.832 6.5 20.8021 6.5 21.9987C6.5 23.1953 7.47005 24.1654 8.66667 24.1654Z" stroke="#111111" stroke-width="1.3" stroke-linecap="round" stroke-linejoin="round"/>
<path d="M17.3327 24.1654C18.5293 24.1654 19.4993 23.1953 19.4993 21.9987C19.4993 20.8021 18.5293 19.832 17.3327 19.832C16.1361 19.832 15.166 20.8021 15.166 21.9987C15.166 23.1953 16.1361 24.1654 17.3327 24.1654Z" stroke="#111111" stroke-width="1.3" stroke-linecap="round" stroke-linejoin="round"/>
<rect x="17.6953" y="10.0273" width="3.03513" height="5.52797" transform="rotate(-30.15 17.6953 10.0273)" fill="white"/>
<rect x="18.0625" y="16.6992" width="4.83678" height="5.52797" transform="rotate(-90.728 18.0625 16.6992)" fill="white"/>
<rect x="19.9219" y="7.76953" width="1.30776" height="7.27947" rx="0.653881" transform="rotate(-29.9602 19.9219 7.76953)" fill="#111111"/>
<path d="M23.1348 12.9727H24.2762C24.3847 12.9727 24.4726 13.0606 24.4726 13.169V17.4086C24.4726 17.778 24.1731 18.0775 23.8037 18.0775C23.4342 18.0775 23.1348 17.778 23.1348 17.4086V12.9727Z" fill="#111111"/>
</svg>
